inDegrees=yes
name=ik_lifting_orientations
DataType=double
version=3
OpenSimVersion=4.5-2024-01-10-34fd6af
endheader
time	pelvis_tilt	pelvis_list	pelvis_rotation	pelvis_tx	pelvis_ty	pelvis_tz	hip_flexion_r	hip_adduction_r	hip_rotation_r	knee_angle_r	knee_angle_r_beta	ankle_angle_r	subtalar_angle_r	mtp_angle_r	hip_flexion_l	hip_adduction_l	hip_rotation_l	knee_angle_l	knee_angle_l_beta	ankle_angle_l	subtalar_angle_l	mtp_angle_l	lumbar_extension	lumbar_bending	lumbar_rotation	arm_flex_r	arm_add_r	arm_rot_r	elbow_flex_r	pro_sup_r	wrist_flex_r	wrist_dev_r	arm_flex_l	arm_add_l	arm_rot_l	elbow_flex_l	pro_sup_l	wrist_flex_l	wrist_dev_l
1.11	-4.321557175521711	-7.599527952221002	-187.8237532801455	0	0.9399999998679526	0	19.04264699022852	-7.50105549199646	0	30.17358751832821	0.5266284493334922	-4.100792261239993	0	0	19.04264699022852	-7.50105549199646	0	30.17358751832821	0.5266284493334922	-4.100792261239993	0	0	-56.83401283446572	-12.87084129534514	-0.9553226283821145	64.93883488491089	-3.813590982991059	-3.286030480752708	0.007619451311661802	49.34036944155961	0	0	0	-3.355639451019371	0	40.61437410911925	49.34036944155961	0	0
1.12	-3.129463392695094	-7.327034232622413	-187.3741306683368	0	0.9399999998679526	0	19.62518192244189	-7.653483647514334	0	30.82939844068576	0.5380745091991723	-4.169203690507041	0	0	19.62518192244189	-7.653483647514334	0	30.82939844068576	0.5380745091991723	-4.169203690507041	0	0	-55.30489156217585	-12.31383823834342	-0.6873765586042351	65.45108468966228	-4.891812162049757	-3.625747462152162	0.00729794191378156	48.38555167070486	0	0	0	-3.486788256575159	0	41.57062764527848	48.38555167070486	0	0
1.13	-1.808601597675515	-7.008818488794326	-186.8520626129189	0	0.9399999998679526	0	19.63436850884646	-7.656123980707462	0	30.83899641287852	0.5382420254154507	-4.170419578399901	0	0	19.63436850884646	-7.656123980707462	0	30.83899641287852	0.5382420254154507	-4.170419578399901	0	0	-53.65142514602672	-11.69061648609303	-0.4766252184175658	65.69612616280699	-5.875072232134948	-3.955990347156913	0.007109289981500677	48.37040645655006	0	0	0	-3.488703172546535	0	41.585797617404	48.37040645655006	0	0
1.14	-0.4703499788550206	-6.714512005756598	-186.4074630656506	0	0.9399999998679526	0	19.64805670231708	-7.660062745555821	0	30.85327651647181	0.5384912602406796	-4.172233507049032	0	0	19.64805670231708	-7.660062745555821	0	30.85327651647181	0.5384912602406796	-4.172233507049032	0	0	-52.02729267836174	-11.14502291073013	-0.2422138016407071	66.00053581005685	-7.067787138854822	-4.601788067866414	0.006980093977072187	48.34783947378676	0	0	0	-3.491552015970698	0	41.6084015295359	48.34783947378676	0	0
1.15	0.388827489704883	-6.39575414037936	-185.9719011184036	0	0.9399999998679526	0	20.09815836749735	-7.775163525267663	0	31.35035934068192	0.5471669921782581	-4.223225997847885	0	0	20.09815836749735	-7.775163525267663	0	31.35035934068192	0.5471669921782581	-4.223225997847885	0	0	-50.93556501291157	-10.5654439594268	-0.1358959202260446	66.29469439087788	-8.537018572975249	-5.427079964724923	0.006868437531078553	47.61318375164841	0	0	0	-3.593290163638279	0	42.34413847319721	47.61318375164841	0	0
1.16	1.212928169363906	-6.022575105161683	-185.5196181755609	0	0.9399999998679526	0	20.10791965623873	-7.777891135999248	0	31.36049076084309	0.5473438188179736	-4.224465520266352	0	0	20.10791965623873	-7.777891135999248	0	31.36049076084309	0.5473438188179736	-4.224465520266352	0	0	-49.7689751199536	-9.86603097788741	0.02320408901288381	66.48771513314399	-9.866353464188876	-6.062758957542559	0.006741731119864627	47.59717310392466	0	0	0	-3.59534994299774	0	42.36017455750447	47.59717310392466	0	0
1.17	1.781252113694269	-5.68331965906726	-185.1230419146524	0	0.9399999998679526	0	20.54153309759526	-7.88608197999335	0	31.83632846216418	0.5556487534111478	-4.27181156536099	0	0	20.54153309759526	-7.88608197999335	0	31.83632846216418	0.5556487534111478	-4.27181156536099	0	0	-48.8584928218029	-9.283487767878077	0.1006184977558801	66.54484906923682	-11.2129778604146	-6.928115342929842	0.006672894479314937	46.89149186958905	0	0	0	-3.69409857046098	0	43.06687369623562	46.89149186958905	0	0
1.18	2.612058405048531	-5.304790293643634	-184.6839500013746	0	0.9399999998679526	0	20.55178629090758	-7.888864121073965	0	31.84692268628781	0.5558336575037994	-4.273059199080229	0	0	20.55178629090758	-7.888864121073965	0	31.84692268628781	0.5558336575037994	-4.273059199080229	0	0	-47.83805610386224	-8.60875881378414	0.2212223877245471	66.80468693507916	-12.27819971426611	-7.511925944091757	0.006548593034973887	46.87475049657899	0	0	0	-3.696291350747412	0	43.0836409343379	46.87475049657899	0	0
1.19	3.452855492905478	-4.949083352920175	-184.2707052945945	0	0.9399999998679526	0	20.55919563912387	-7.890864149508762	0	31.85460212117371	0.5559676889272509	-4.273954863261721	0	0	20.55919563912387	-7.890864149508762	0	31.85460212117371	0.5559676889272509	-4.273954863261721	0	0	-46.79049953282603	-8.000853127336581	0.2958389770774196	67.42029162803556	-11.83841220908107	-7.741193244837618	0.006211895138096321	46.86265604075259	0	0	0	-3.69788294145375	0	43.09575399118162	46.86265604075259	0	0
1.2	4.851311932489827	-4.621883659225905	-183.8652226763118	0	0.9399999998679526	0	20.57041082051765	-7.893885997870132	0	31.86623433159388	0.5561707092983678	-4.275307316362788	0	0	20.57041082051765	-7.893885997870132	0	31.86623433159388	0.5561707092983678	-4.275307316362788	0	0	-45.19884556312103	-7.44113005612311	0.4087017299106626	68.14529416961159	-11.18665096420363	-7.726195440036385	0.005924476849580354	46.8443518729305	0	0	0	-3.700295235865792	0	43.11408626539332	46.8443518729305	0	0
1.21	6.283388528185023	-4.338885129981946	-183.5033940825048	0	0.9399999998679526	0	20.58181589797211	-7.896964807231392	0	31.87803928493524	0.5563767446022188	-4.276685523026834	0	0	20.58181589797211	-7.896964807231392	0	31.87803928493524	0.5563767446022188	-4.276685523026834	0	0	-43.59473801036372	-6.949723752569168	0.4979807905045159	68.91427071223229	-10.25902714911357	-7.361696572763552	0.005666533450541894	46.82573754352715	0	0	0	-3.702742871473531	0	43.13272922654515	46.82573754352715	0	0
1.22	7.571111008754285	-4.042182005140955	-183.1449583303401	0	0.9399999998679526	0	20.59185719785739	-7.899675621497604	0	31.88842551364563	0.5565580184900802	-4.277898758731812	0	0	20.59185719785739	-7.899675621497604	0	31.88842551364563	0.5565580184900802	-4.277898758731812	0	0	-42.01374215407312	-6.457524369661051	0.5739323241046486	69.61330687337866	-9.203621770868123	-7.082347146653165	0.005423178652528004	46.80935009040124	0	0	0	-3.704896772611721	0	43.14914188827021	46.80935009040124	0	0
1.23	8.242657947384936	-3.626415946107699	-182.7417802410752	0	0.9399999998679526	0	20.60116250210756	-7.90218930881372	0	31.89804066935008	0.5567258346152149	-4.279023717616155	0	0	20.60116250210756	-7.90218930881372	0	31.89804066935008	0.5567258346152149	-4.279023717616155	0	0	-41.12655221517245	-5.848561816782388	0.6155386045580472	70.48294802224714	-8.084037223166606	-6.934550929777084	0.005215328279610952	46.79416433830522	0	0	0	-3.706890905917107	0	43.16435101342277	46.79416433830522	0	0
1.24	8.932103896426803	-3.258099040023367	-182.3929374942389	0	0.9399999998679526	0	20.61053671765527	-7.90472001455604	0	31.90772579976094	0.5568948720293693	-4.280155919099387	0	0	20.61053671765527	-7.90472001455604	0	31.90772579976094	0.5568948720293693	-4.280155919099387	0	0	-40.36899638020636	-5.301135576194842	0.6318247310250255	71.49045041173564	-6.670775855098311	-6.656453501198371	0.005011382076361101	46.77886747962858	0	0	0	-3.708900223363138	0	43.17967140356003	46.77886747962858	0	0
